<?xml version="1.0" standalone="no"?><!DOCTYPE svg PUBLIC "-//W3C//DTD SVG 1.1//EN" "http://www.w3.org/Graphics/SVG/1.1/DTD/svg11.dtd"><svg t="1597115013979" class="icon" viewBox="0 0 1024 1024" version="1.1" xmlns="http://www.w3.org/2000/svg" p-id="3498" xmlns:xlink="http://www.w3.org/1999/xlink" width="400" height="400"><defs><style type="text/css"></style></defs><path d="M830.4 112H193.6C156.8 112 128 136 128 166.4v715.2c0 11.2 4.8 20.8 14.4 25.6 9.6 6.4 22.4 6.4 33.6 3.2l336-120 336 120c4.8 1.6 9.6 3.2 14.4 3.2 6.4 0 12.8-1.6 19.2-4.8 9.6-6.4 14.4-16 14.4-25.6V166.4C896 136 867.2 112 830.4 112zM848 859.2l-321.6-115.2c-9.6-3.2-19.2-3.2-28.8 0L176 859.2V168c0-1.6 6.4-6.4 17.6-6.4H832c11.2 0 16 4.8 17.6 6.4v691.2z" fill="#dbdbdb" p-id="3499" style="user-select: auto;"></path><path d="M718.4 286.4H305.6c-12.8 0-22.4 9.6-22.4 22.4v4.8c0 12.8 9.6 22.4 22.4 22.4h412.8c12.8 0 22.4-9.6 22.4-22.4v-4.8c0-12.8-11.2-22.4-22.4-22.4zM718.4 432H305.6c-12.8 0-22.4 9.6-22.4 22.4v4.8c0 12.8 9.6 22.4 22.4 22.4h412.8c12.8 0 22.4-9.6 22.4-22.4v-4.8c0-12.8-11.2-22.4-22.4-22.4zM718.4 579.2H305.6c-12.8 0-22.4 9.6-22.4 22.4v4.8c0 12.8 9.6 22.4 22.4 22.4h412.8c12.8 0 22.4-9.6 22.4-22.4v-4.8c0-12.8-11.2-22.4-22.4-22.4z" fill="#dbdbdb" p-id="3500" style="user-select: auto;"></path></svg>